<svg width="25" height="25" viewBox="0 0 25 25" fill="none" xmlns="http://www.w3.org/2000/svg">
<path d="M17.4093 2.26039L17.5509 2.26159L18.0681 2.26999L18.5145 2.28679C19.3449 2.33119 19.8201 2.44159 20.3169 2.69479C21.0693 3.07879 21.6813 3.69079 22.0653 4.44319L22.0893 4.49119L22.1121 4.53799L22.1961 4.72399C22.2729 4.90999 22.3317 5.09719 22.3749 5.31679L22.4133 5.54839L22.4433 5.80879L22.4661 6.10519L22.4817 6.44359L22.4925 6.83119L22.4985 7.27399L22.5009 13.4588L22.4985 14.2436L22.4925 14.6864L22.4817 15.074L22.4661 15.4124L22.4433 15.7088L22.4133 15.9692C22.3809 16.2261 22.3181 16.4783 22.2261 16.7204L22.1553 16.8884L22.0641 17.0768C21.6801 17.8292 21.0693 18.4412 20.3157 18.8252L20.2677 18.8492L20.2209 18.872L20.0349 18.956C19.8489 19.0328 19.6617 19.0916 19.4421 19.1348L19.2105 19.1732L18.9501 19.2032L18.6537 19.226L18.3153 19.2416L17.9277 19.2524L17.4849 19.2584L9.81691 19.262L9.44131 19.2704L9.27571 19.2824L9.14971 19.3016C9.03211 19.3256 8.91691 19.3604 8.80531 19.4048L8.64211 19.4792L8.61931 19.4912L8.48251 19.574L8.33371 19.6808L8.05171 19.8992L5.42371 22.0004L5.01691 22.3208L4.81171 22.4708C4.50211 22.6832 4.33651 22.7192 4.00051 22.7192C3.77508 22.7194 3.5525 22.6688 3.34932 22.5712C3.14614 22.4735 2.96758 22.3313 2.82691 22.1552C2.64691 21.9296 2.56531 21.7868 2.52931 21.5144L2.51491 21.3668L2.50411 21.1124L2.50291 21.038L2.50171 20.96V7.35079V7.20919L2.51011 6.69199L2.52691 6.24559C2.57131 5.41519 2.68171 4.93999 2.93491 4.44319C3.31891 3.69079 3.93091 3.07879 4.68331 2.69479C5.12491 2.46919 5.54971 2.35759 6.22171 2.30359L6.48571 2.28559L6.93211 2.26879L7.05451 2.26639L7.18171 2.26399L7.73731 2.25919H17.4081L17.4093 2.26039ZM17.4897 4.26079H7.51291L6.92131 4.27159L6.60211 4.28479L6.33571 4.30399L6.11491 4.32919L5.93131 4.36159C5.81349 4.3853 5.6993 4.42444 5.59171 4.47799C5.21491 4.66999 4.90891 4.97599 4.71811 5.35159C4.68691 5.41399 4.65931 5.48239 4.63531 5.56159L4.60291 5.68999L4.57051 5.87359L4.54531 6.09439L4.54051 6.15679L4.53571 6.22159L4.52011 6.51319L4.50931 6.85999L4.50331 7.26919L4.50211 20.1776L6.56251 18.53L7.04491 18.1496L7.21411 18.0224L7.35571 17.9228L7.48411 17.84L7.61611 17.7632L7.73491 17.6996C8.0557 17.5356 8.39719 17.4157 8.75011 17.3432C8.86291 17.3204 8.97091 17.3036 9.09091 17.2916L9.27931 17.2772L9.61291 17.2652L9.81331 17.2628L16.7025 17.2616L17.5689 17.258L18.2157 17.2436L18.4701 17.2316L18.7797 17.2064L18.9465 17.1848L19.0881 17.1584L19.1505 17.1428L19.2633 17.108L19.3149 17.0888L19.4109 17.0444C19.7877 16.8524 20.0937 16.5464 20.2845 16.1708L20.2965 16.148L20.3073 16.124L20.3481 16.0244L20.3661 15.9704L20.3985 15.8492L20.4249 15.7076L20.4465 15.5408L20.4717 15.2312L20.4837 14.9768L20.4921 14.678L20.5005 13.9268L20.5017 8.06359L20.4981 7.19719L20.4837 6.55039L20.4717 6.29599L20.4465 5.98639L20.4249 5.81959L20.3985 5.67799L20.3913 5.64559L20.3829 5.61439L20.3481 5.50159L20.3289 5.44999L20.2845 5.35399C20.0925 4.97719 19.7865 4.67119 19.4109 4.48039C19.3485 4.44919 19.2801 4.42159 19.2009 4.39759L19.0725 4.36519L18.8889 4.33279L18.6681 4.30759L18.6057 4.30279L18.5409 4.29799L18.2493 4.28239L17.9025 4.27159L17.4933 4.26559L17.4897 4.26079ZM15.5001 11.2592C16.0521 11.2592 16.4997 11.7068 16.4997 12.2588C16.4997 12.7712 16.1133 13.1948 15.6165 13.2524L15.5001 13.2596H7.49971C6.94771 13.2596 6.50011 12.812 6.50011 12.26C6.50011 11.7476 6.88651 11.324 7.38331 11.2664L7.49971 11.2592H15.5001ZM12.5001 7.75999C13.0521 7.75999 13.4997 8.20759 13.4997 8.75959C13.4997 9.27199 13.1133 9.69559 12.6165 9.75319L12.5001 9.75919H7.49971C6.94771 9.75919 6.50011 9.31159 6.50011 8.75959C6.50011 8.24719 6.88651 7.82359 7.38331 7.76599L7.49971 7.75879H12.5001V7.75999Z" fill="#E3E9EE"/>
</svg>
