<svg width="40" height="40" viewBox="0 0 40 40" fill="none" xmlns="http://www.w3.org/2000/svg">
<rect width="40" height="40" rx="12" fill="#4BAB71"/>
<path d="M25.8344 9.99561H14.1572L12.8 10.0256C12.4052 10.058 12.0116 10.1288 11.6336 10.322C11.0688 10.6097 10.6097 11.0688 10.322 11.6336C10.1288 12.0116 10.058 12.4052 10.0256 12.8C9.99561 13.1744 9.99561 13.6292 9.99561 14.156V19.886C9.99561 20.3192 9.99561 20.5352 10.0844 20.7332C10.1564 20.8928 10.3028 21.0632 10.4492 21.158C10.6304 21.2756 10.8176 21.3044 11.1908 21.362C11.7872 21.4532 12.3908 21.4952 12.9944 21.4952C16.3004 21.4952 19.2932 20.1596 21.4652 17.9948H19.9952C19.4432 17.9948 18.9956 17.5472 18.9956 16.9952C18.9956 16.4432 19.4432 15.9956 19.9952 15.9956H23.9948C24.5468 15.9956 24.9944 16.4432 24.9944 16.9952V20.9948C24.9944 21.5468 24.5468 21.9944 23.9948 21.9944C23.4428 21.9944 22.9952 21.5468 22.9952 20.9948V19.2932C20.4548 21.8852 16.9136 23.4956 12.9956 23.4956C12.6505 23.4958 12.3054 23.4834 11.9612 23.4584C11.1992 23.4032 10.8176 23.3744 10.5884 23.4776C10.3831 23.5624 10.2153 23.7183 10.1156 23.9168C9.99681 24.1388 9.99681 24.4796 9.99681 25.1612V25.8356L10.0268 27.1916C10.0592 27.5876 10.13 27.98 10.3232 28.358C10.6109 28.9228 11.07 29.3819 11.6348 29.6696C12.0128 29.8628 12.4064 29.9336 12.8012 29.966C13.1756 29.996 13.6304 29.996 14.1572 29.996H25.8344L27.1904 29.966C27.5852 29.9336 27.9788 29.8628 28.358 29.6696C28.9228 29.3819 29.3819 28.9228 29.6696 28.358C29.8628 27.98 29.9336 27.5864 29.966 27.1916C29.996 26.8172 29.996 26.3624 29.996 25.8356V14.1572L29.9648 12.8C29.9324 12.4052 29.8616 12.0116 29.6684 11.6336C29.3807 11.0688 28.9216 10.6097 28.3568 10.322C27.9788 10.1288 27.5852 10.058 27.1892 10.0256C26.8148 9.99561 26.36 9.99561 25.8332 9.99561H25.8344Z" fill="#FCFDFE"/>
</svg>
