<svg width="23" height="23" viewBox="0 0 23 23" fill="none" xmlns="http://www.w3.org/2000/svg">
<path d="M11.4999 0.300385C17.6859 0.300385 22.6995 5.31519 22.6995 11.5C22.6995 17.6848 17.6859 22.6996 11.4999 22.6996C5.31389 22.6996 0.300293 17.686 0.300293 11.5C0.300293 5.31398 5.31389 0.300385 11.4999 0.300385ZM11.4999 2.70038C6.63989 2.70038 2.70029 6.63998 2.70029 11.5C2.70029 16.36 6.63989 20.2996 11.4999 20.2996C16.3599 20.2996 20.2995 16.36 20.2995 11.5C20.2995 6.63998 16.3599 2.70038 11.4999 2.70038ZM11.4999 6.30038C11.7938 6.30042 12.0775 6.40833 12.2971 6.60364C12.5168 6.79895 12.6571 7.06808 12.6915 7.35999L12.6999 7.50038V10.3H15.5007C15.8065 10.3003 16.1007 10.4174 16.3231 10.6274C16.5455 10.8374 16.6794 11.1243 16.6973 11.4297C16.7152 11.735 16.6159 12.0356 16.4196 12.2702C16.2233 12.5047 15.9448 12.6555 15.6411 12.6916L15.5007 12.7H12.6999V15.5008C12.6996 15.8066 12.5824 16.1008 12.3725 16.3232C12.1625 16.5456 11.8756 16.6795 11.5702 16.6974C11.2649 16.7153 10.9642 16.616 10.7297 16.4197C10.4952 16.2234 10.3444 15.9449 10.3083 15.6412L10.2999 15.4996V12.7H7.50029C7.19444 12.6996 6.90025 12.5825 6.67785 12.3726C6.45545 12.1626 6.32161 11.8756 6.30369 11.5703C6.28576 11.265 6.3851 10.9643 6.58141 10.7298C6.77772 10.4952 7.05618 10.3445 7.35989 10.3084L7.50029 10.3H10.2999V7.50038C10.2999 7.18213 10.4263 6.8769 10.6514 6.65186C10.8764 6.42681 11.1816 6.30038 11.4999 6.30038Z" fill="#E3E9EE"/>
</svg>
