<svg width="95" height="24" viewBox="0 0 95 24" fill="none" xmlns="http://www.w3.org/2000/svg">
<path d="M32.3513 8.92966C32.3513 8.79424 32.3513 8.65882 32.3513 8.52341C32.3598 8.37952 32.3683 8.23564 32.3767 8.09176C33.9933 7.22848 35.7283 6.79684 37.5818 6.79684C39.4353 6.79684 40.7641 7.14808 41.5681 7.85055C42.3722 8.55303 42.7742 9.71676 42.7742 11.3418V16.8769C43.3751 17.0039 43.8533 17.152 44.2088 17.3213V19.581C43.3455 19.9957 42.0802 20.2031 40.4129 20.2031C40.2351 19.7376 40.087 19.1917 39.9685 18.5654C39.2237 19.6572 37.8738 20.2031 35.9187 20.2031C35.1485 20.2031 34.4418 20.0507 33.7986 19.7461C33.1638 19.4414 32.656 19.0097 32.2752 18.4511C31.8943 17.8841 31.7039 17.2112 31.7039 16.4326C31.7039 15.2731 32.089 14.3632 32.8592 13.7031C33.6293 13.0345 34.7762 12.7002 36.2996 12.7002H39.1433V11.4433C39.1433 10.0892 38.4239 9.41208 36.9851 9.41208C36.4265 9.41208 35.9822 9.46709 35.6521 9.57712C35.6098 10.3134 35.5082 10.8763 35.3474 11.2656H32.7957C32.4995 10.6478 32.3513 9.86911 32.3513 8.92966ZM37.0359 17.5498C37.9246 17.5498 38.6271 17.2916 39.1433 16.7754V14.6425H37.3152C36.0711 14.6425 35.449 15.1207 35.449 16.0771C35.449 16.5088 35.5802 16.8642 35.8426 17.1435C36.1134 17.4144 36.5112 17.5498 37.0359 17.5498Z" fill="white"/>
<path d="M51.6355 3.54684L51.8894 1.54098C52.8797 1.31247 53.8276 1.19821 54.7332 1.19821C55.6303 1.19821 56.4005 1.2236 57.0437 1.27438V16.8769C57.5769 16.97 58.0551 17.1181 58.4783 17.3213V19.3779C57.4288 19.928 56.1085 20.2031 54.5174 20.2031C54.3481 20.1185 54.1788 19.9661 54.0096 19.7461C53.8487 19.5175 53.7599 19.2975 53.743 19.0859C53.3621 19.3991 52.867 19.6657 52.2576 19.8857C51.6482 20.0973 51.0515 20.2031 50.4676 20.2031C48.5971 20.2031 47.2387 19.6995 46.3924 18.6924C45.5545 17.6767 45.1355 16.0136 45.1355 13.7031C45.1355 11.0879 45.7788 9.25127 47.0652 8.19333C48.1993 7.26234 49.5831 6.79684 51.2166 6.79684C51.9275 6.79684 52.6554 6.88148 53.4002 7.05075V4.4736C52.6131 4.26201 52.0249 3.95309 51.6355 3.54684ZM51.0135 17.5498C52.0122 17.5498 52.8077 17.2578 53.4002 16.6738V9.70407C52.6723 9.5348 51.9191 9.45016 51.1404 9.45016C50.3448 9.45016 49.7693 9.79717 49.4138 10.4912C49.0584 11.1852 48.8806 12.2347 48.8806 13.6396C48.8806 15.0361 49.0541 16.039 49.4012 16.6484C49.7482 17.2493 50.2856 17.5498 51.0135 17.5498Z" fill="white"/>
<path d="M72.2146 10.0215L67.9236 20.1523H65.0672L60.8015 10.0215C59.9383 9.74216 59.3585 9.40361 59.0623 9.00583L59.3162 6.99997H65.3084L65.5623 9.00583C65.3253 9.28512 64.9529 9.5348 64.4451 9.75485L65.8543 13.6777C66.0066 14.0924 66.1378 14.5029 66.2478 14.9091C66.3663 15.3069 66.4594 15.7047 66.5271 16.1025L66.5779 16.458H66.9461C67.09 15.5862 67.3312 14.6764 67.6697 13.7285L69.0408 9.8818C68.4145 9.64482 67.9659 9.35283 67.6951 9.00583L67.949 6.99997H73.6746L73.9285 9.00583C73.6153 9.40361 73.0441 9.74216 72.2146 10.0215Z" fill="white"/>
<path d="M74.8426 9.00583L75.0965 6.99997C76.0782 6.77145 76.9838 6.65719 77.8133 6.65719C78.228 6.65719 78.6088 6.66566 78.9558 6.68259C79.3028 6.69105 79.6202 6.71221 79.908 6.74606V17.1181C80.5851 17.372 81.0633 17.664 81.3426 17.9941L81.0887 20H75.0965L74.8426 17.9941C75.0795 17.664 75.5577 17.372 76.2771 17.1181V9.8818C75.6593 9.67868 75.1811 9.38669 74.8426 9.00583Z" fill="white"/>
<path d="M82.9041 8.92966C82.9041 8.79424 82.9041 8.65882 82.9041 8.52341C82.9125 8.37952 82.921 8.23564 82.9295 8.09176C84.546 7.22848 86.281 6.79684 88.1346 6.79684C89.9881 6.79684 91.3168 7.14808 92.1209 7.85055C92.9249 8.55303 93.3269 9.71676 93.3269 11.3418V16.8769C93.9278 17.0039 94.406 17.152 94.7615 17.3213V19.581C93.8982 19.9957 92.6329 20.2031 90.9656 20.2031C90.7879 19.7376 90.6398 19.1917 90.5213 18.5654C89.7765 19.6572 88.4265 20.2031 86.4715 20.2031C85.7013 20.2031 84.9946 20.0507 84.3513 19.7461C83.7166 19.4414 83.2088 19.0097 82.8279 18.4511C82.4471 17.8841 82.2566 17.2112 82.2566 16.4326C82.2566 15.2731 82.6417 14.3632 83.4119 13.7031C84.1821 13.0345 85.3289 12.7002 86.8523 12.7002H89.6961V11.4433C89.6961 10.0892 88.9767 9.41208 87.5379 9.41208C86.9793 9.41208 86.5349 9.46709 86.2049 9.57712C86.1625 10.3134 86.061 10.8763 85.9002 11.2656H83.3484C83.0522 10.6478 82.9041 9.86911 82.9041 8.92966ZM87.5887 17.5498C88.4773 17.5498 89.1798 17.2916 89.6961 16.7754V14.6425H87.868C86.6238 14.6425 86.0017 15.1207 86.0017 16.0771C86.0017 16.5088 86.1329 16.8642 86.3953 17.1435C86.6661 17.4144 87.0639 17.5498 87.5887 17.5498Z" fill="white"/>
<path d="M11.7158 0.022803L22.442 5.32608C22.6194 5.4133 22.6111 5.45587 22.4171 5.45379C15.1906 5.39149 7.98794 5.38786 0.809129 5.44289C0.625509 5.44393 0.616173 5.40395 0.78112 5.32297L11.5182 0.022803C11.5492 0.00779788 11.5831 0 11.6173 0C11.6516 0 11.6853 0.00779788 11.7158 0.022803Z" fill="white"/>
<path d="M1.89562 6.29323H21.322C21.3368 6.29323 21.3511 6.29913 21.3616 6.30965C21.3721 6.32016 21.378 6.33442 21.378 6.3493V7.15764C21.378 7.17251 21.3721 7.18677 21.3616 7.19728C21.3511 7.2078 21.3368 7.21371 21.322 7.21371H1.89406C1.87921 7.21371 1.86496 7.2078 1.85445 7.19728C1.84395 7.18677 1.83804 7.17251 1.83804 7.15764L1.8396 6.3493C1.8396 6.33442 1.8455 6.32016 1.85601 6.30965C1.86651 6.29913 1.88076 6.29323 1.89562 6.29323Z" fill="white"/>
<path d="M5.22873 8.05184H3.47345C3.44251 8.05184 3.41743 8.07694 3.41743 8.10791V19.7518C3.41743 19.7827 3.44251 19.8078 3.47345 19.8078H5.22873C5.25967 19.8078 5.28475 19.7827 5.28475 19.7518V8.10791C5.28475 8.07694 5.25967 8.05184 5.22873 8.05184Z" fill="white"/>
<path d="M8.76416 8.05014H7.04623C7.00584 8.05014 6.97309 8.08291 6.97309 8.12334V19.736C6.97309 19.7765 7.00584 19.8092 7.04623 19.8092H8.76416C8.80456 19.8092 8.8373 19.7765 8.8373 19.736V8.12334C8.8373 8.08291 8.80456 8.05014 8.76416 8.05014Z" fill="white"/>
<path d="M12.3511 8.05014H10.602C10.5694 8.05014 10.5429 8.07664 10.5429 8.10932V19.7501C10.5429 19.7827 10.5694 19.8092 10.602 19.8092H12.3511C12.3837 19.8092 12.4102 19.7827 12.4102 19.7501V8.10932C12.4102 8.07664 12.3837 8.05014 12.3511 8.05014Z" fill="white"/>
<path d="M15.9254 8.06286H14.167C14.1378 8.06286 14.1141 8.08657 14.1141 8.11581V19.7565C14.1141 19.7858 14.1378 19.8095 14.167 19.8095H15.9254C15.9546 19.8095 15.9783 19.7858 15.9783 19.7565V8.11581C15.9783 8.08657 15.9546 8.06286 15.9254 8.06286Z" fill="white"/>
<path d="M19.4829 8.05325H17.7183C17.6882 8.05325 17.6638 8.07766 17.6638 8.10776V19.7547C17.6638 19.7848 17.6882 19.8092 17.7183 19.8092H19.4829C19.513 19.8092 19.5374 19.7848 19.5374 19.7547V8.10776C19.5374 8.07766 19.513 8.05325 19.4829 8.05325Z" fill="white"/>
<path d="M20.8735 21.5739L23.0956 21.591C23.1113 21.591 23.1264 21.5972 23.1375 21.6083C23.1486 21.6194 23.1548 21.6345 23.1548 21.6502L23.1579 23.0987C23.1579 23.1144 23.1517 23.1294 23.1406 23.1405C23.1295 23.1516 23.1144 23.1579 23.0988 23.1579H0.0591318C0.0434491 23.1579 0.0284087 23.1516 0.0173193 23.1405C0.00622994 23.1294 3.55078e-09 23.1144 3.55078e-09 23.0987V21.6595C-5.33558e-06 21.6441 0.00601054 21.6293 0.0167656 21.6182C0.0275206 21.6072 0.0421643 21.6008 0.0575757 21.6004L2.34971 21.5661C2.36512 21.5657 2.37977 21.5593 2.39052 21.5482C2.40128 21.5372 2.40729 21.5223 2.40729 21.5069L2.41351 20.7188C2.41351 20.7031 2.41974 20.6881 2.43083 20.677C2.44192 20.6659 2.45696 20.6596 2.47264 20.6596L20.7522 20.6659C20.7678 20.6659 20.7829 20.6721 20.794 20.6832C20.8051 20.6943 20.8113 20.7093 20.8113 20.725L20.8144 21.5147C20.8144 21.5304 20.8206 21.5454 20.8317 21.5565C20.8428 21.5676 20.8579 21.5739 20.8735 21.5739Z" fill="white"/>
</svg>
