<svg width="24" height="24" viewBox="0 0 24 24" fill="none" xmlns="http://www.w3.org/2000/svg">
<path d="M11.7158 0.022803L22.442 5.32608C22.6194 5.4133 22.6111 5.45587 22.4171 5.45379C15.1906 5.39149 7.98794 5.38786 0.809129 5.44289C0.625509 5.44393 0.616173 5.40395 0.78112 5.32297L11.5182 0.022803C11.5492 0.00779788 11.5831 0 11.6173 0C11.6516 0 11.6853 0.00779788 11.7158 0.022803Z" fill="white"/>
<path d="M1.89562 6.29323H21.322C21.3368 6.29323 21.3511 6.29913 21.3616 6.30965C21.3721 6.32016 21.378 6.33442 21.378 6.3493V7.15764C21.378 7.17251 21.3721 7.18677 21.3616 7.19728C21.3511 7.2078 21.3368 7.21371 21.322 7.21371H1.89406C1.87921 7.21371 1.86496 7.2078 1.85445 7.19728C1.84395 7.18677 1.83804 7.17251 1.83804 7.15764L1.8396 6.3493C1.8396 6.33442 1.8455 6.32016 1.85601 6.30965C1.86651 6.29913 1.88076 6.29323 1.89562 6.29323Z" fill="white"/>
<path d="M5.22873 8.05184H3.47345C3.44251 8.05184 3.41743 8.07694 3.41743 8.10791V19.7518C3.41743 19.7827 3.44251 19.8078 3.47345 19.8078H5.22873C5.25967 19.8078 5.28475 19.7827 5.28475 19.7518V8.10791C5.28475 8.07694 5.25967 8.05184 5.22873 8.05184Z" fill="white"/>
<path d="M8.76416 8.05014H7.04623C7.00584 8.05014 6.97309 8.08291 6.97309 8.12334V19.736C6.97309 19.7765 7.00584 19.8092 7.04623 19.8092H8.76416C8.80456 19.8092 8.8373 19.7765 8.8373 19.736V8.12334C8.8373 8.08291 8.80456 8.05014 8.76416 8.05014Z" fill="white"/>
<path d="M12.3511 8.05014H10.602C10.5694 8.05014 10.5429 8.07664 10.5429 8.10932V19.7501C10.5429 19.7827 10.5694 19.8092 10.602 19.8092H12.3511C12.3837 19.8092 12.4102 19.7827 12.4102 19.7501V8.10932C12.4102 8.07664 12.3837 8.05014 12.3511 8.05014Z" fill="white"/>
<path d="M15.9254 8.06286H14.167C14.1378 8.06286 14.1141 8.08657 14.1141 8.11581V19.7565C14.1141 19.7858 14.1378 19.8095 14.167 19.8095H15.9254C15.9546 19.8095 15.9783 19.7858 15.9783 19.7565V8.11581C15.9783 8.08657 15.9546 8.06286 15.9254 8.06286Z" fill="white"/>
<path d="M19.4829 8.05325H17.7183C17.6882 8.05325 17.6638 8.07766 17.6638 8.10776V19.7547C17.6638 19.7848 17.6882 19.8092 17.7183 19.8092H19.4829C19.513 19.8092 19.5374 19.7848 19.5374 19.7547V8.10776C19.5374 8.07766 19.513 8.05325 19.4829 8.05325Z" fill="white"/>
<path d="M20.8735 21.5739L23.0956 21.591C23.1113 21.591 23.1264 21.5972 23.1375 21.6083C23.1486 21.6194 23.1548 21.6345 23.1548 21.6502L23.1579 23.0987C23.1579 23.1144 23.1517 23.1294 23.1406 23.1405C23.1295 23.1516 23.1144 23.1579 23.0988 23.1579H0.0591318C0.0434491 23.1579 0.0284087 23.1516 0.0173193 23.1405C0.00622994 23.1294 3.55021e-09 23.1144 3.55021e-09 23.0987V21.6595C-5.33558e-06 21.6441 0.00601054 21.6293 0.0167656 21.6182C0.0275206 21.6072 0.0421643 21.6008 0.0575757 21.6004L2.34971 21.5661C2.36512 21.5657 2.37977 21.5593 2.39052 21.5482C2.40128 21.5372 2.40729 21.5223 2.40729 21.5069L2.41351 20.7188C2.41351 20.7031 2.41974 20.6881 2.43083 20.677C2.44192 20.6659 2.45696 20.6596 2.47264 20.6596L20.7522 20.6659C20.7678 20.6659 20.7829 20.6721 20.794 20.6832C20.8051 20.6943 20.8113 20.7093 20.8113 20.725L20.8144 21.5147C20.8144 21.5304 20.8206 21.5454 20.8317 21.5565C20.8428 21.5676 20.8579 21.5739 20.8735 21.5739Z" fill="white"/>
</svg>
