<svg width="25" height="25" viewBox="0 0 25 25" fill="none" xmlns="http://www.w3.org/2000/svg">
<g id="Button &#226;&#134;&#146; SVG">
<path id="Vector" d="M20.8841 11.4624C21.1781 11.4624 21.4618 11.5703 21.6814 11.7657C21.901 11.961 22.0414 12.2301 22.0758 12.522L22.0842 12.6624V13.662C22.0832 16.1018 21.1136 18.4414 19.3884 20.1666C17.6632 21.8918 15.3236 22.8614 12.8837 22.8624C10.4946 22.8615 8.19952 21.9316 6.48351 20.2693C4.7675 18.6071 3.76509 16.3427 3.68815 13.9548L3.68335 13.6632V12.6624C3.68369 12.3565 3.8008 12.0624 4.01077 11.84C4.22073 11.6176 4.50769 11.4837 4.81302 11.4658C5.11835 11.4479 5.41901 11.5472 5.65355 11.7435C5.88809 11.9398 6.03883 12.2183 6.07495 12.522L6.08335 12.6624V13.662C6.0843 15.4653 6.80108 17.1944 8.07619 18.4696C9.35131 19.7447 11.0805 20.4614 12.8837 20.4624C14.6418 20.4616 16.3313 19.7803 17.5981 18.5613C18.865 17.3423 19.6108 15.6803 19.6793 13.9236L19.6842 13.6632V12.6624C19.6842 12.3441 19.8106 12.0389 20.0356 11.8139C20.2607 11.5888 20.5659 11.4624 20.8841 11.4624ZM12.8837 2.4624C15.7554 2.4624 18.0834 4.7904 18.0834 7.662V13.662C18.0834 16.5336 15.7554 18.8616 12.8837 18.8616C10.0121 18.8616 7.68415 16.5336 7.68415 13.662V7.662C7.68415 4.7904 10.0121 2.4624 12.8837 2.4624ZM12.8837 4.8624C11.3369 4.8624 10.0841 6.1164 10.0841 7.662V13.662C10.0841 15.2088 11.3381 16.4616 12.8837 16.4616C14.4293 16.4616 15.6833 15.2076 15.6833 13.662V7.662C15.6833 6.1164 14.4305 4.8624 12.8837 4.8624Z" fill="#F1F5F9"/>
</g>
</svg>
